<?xml version="1.0" encoding="UTF-8"?>
<svg xmlns="http://www.w3.org/2000/svg" version="1.1" viewBox="0 0 504 504">
  <!-- Generator: Adobe Illustrator 30.0.0, SVG Export Plug-In . SVG Version: 2.1.1 Build 123)  -->
  <defs>
    <style>
      .st0 {
        fill: #fff;
        font-family: Avenir-Medium, Avenir;
        font-size: 38px;
        font-weight: 500;
      }

      .st1 {
        fill: #6f7acf;
      }

      .st2 {
        fill: #0f0c24;
      }

      .st3, .st4 {
        fill: #ccc;
      }

      .st5 {
        fill: #efe6df;
      }

      .st4 {
        opacity: .5;
        stroke: #666;
        stroke-miterlimit: 10;
        stroke-width: 2px;
      }

      .st6 {
        fill: #2b2551;
      }

      .st7 {
        display: none;
      }
    </style>
  </defs>
  <g id="Layer_7" class="st7">
    <rect class="st5" width="504" height="504"/>
  </g>
  <g id="clear_space" class="st7">
    <line class="st4" x1="169.33" y1="50.21" x2="169.33" y2="441.96"/>
    <line class="st4" x1="110.21" y1="50.21" x2="110.21" y2="441.96"/>
    <g>
      <path class="st3" d="M139.91,241.85c0,20.18-28.92,20.1-28.92,20.1h57.58c-28.79,0-28.66-20.1-28.66-20.1Z"/>
      <path class="st3" d="M168.56,261.96h-57.58s28.92-.08,28.92,20.1c0,0-.13-20.1,28.66-20.1Z"/>
    </g>
    <line class="st4" x1="393.79" y1="50.21" x2="393.79" y2="441.96"/>
    <line class="st4" x1="334.67" y1="50.21" x2="334.67" y2="441.96"/>
    <g>
      <path class="st3" d="M364.36,241.85c0,20.18-28.92,20.1-28.92,20.1h57.58c-28.79,0-28.66-20.1-28.66-20.1Z"/>
      <path class="st3" d="M393.01,261.96h-57.58s28.92-.08,28.92,20.1c0,0-.13-20.1,28.66-20.1Z"/>
    </g>
    <g>
      <path class="st3" d="M272.1,125.78c-20.18,0-20.1-28.92-20.1-28.92v57.58c0-28.79,20.1-28.66,20.1-28.66Z"/>
      <path class="st3" d="M252,154.43v-57.58s.08,28.92-20.1,28.92c0,0,20.1-.13,20.1,28.66Z"/>
    </g>
    <line class="st4" x1="441.82" y1="154.41" x2="50.07" y2="154.41"/>
    <line class="st4" x1="441.82" y1="407.17" x2="50.07" y2="407.17"/>
    <line class="st4" x1="441.82" y1="96.86" x2="50.07" y2="96.86"/>
    <g>
      <path class="st3" d="M272.1,378.51c-20.18,0-20.1-28.92-20.1-28.92v57.58c0-28.79,20.1-28.66,20.1-28.66Z"/>
      <path class="st3" d="M252,407.17v-57.58s.08,28.92-20.1,28.92c0,0,20.1-.13,20.1,28.66Z"/>
    </g>
    <line class="st4" x1="441.82" y1="349.59" x2="50.07" y2="349.59"/>
  </g>
  <g id="Layer_1" class="st7">
    <g>
      <path class="st6" d="M252.9,267.31c19.4,14.12,45.15,26.33,45.15,26.33,3.84-4.79,5.28-9.48,4.52-16.8,0,0-21.27-9.68-39.2-23.35-13.99-10.66-26.36-23.42-38.15-36.42-11.8-13.01-21.82-27.29-29.3-43.23-2.94-6.26-5.77-12.72-7.25-19.51-4.41.02-14.93,0-19.34.02,0,0,0,.15,0,.25v194.88h19.32v-151.54c6.17,10.12,13.21,19.73,20.86,28.89,4.8,5.74,23.33,25.88,43.39,40.47Z"/>
      <path class="st6" d="M315.35,154.31v89.61c-44.16-16.82-81.11-73.26-86.29-89.61l-22.13.04c7.87,28.07,52.88,86.47,94.45,104.06,17.73,7.5,26.47,1.2,30.42-4.15,1.92-2.6,2.88-5.79,2.88-9.02v-90.92h-19.32Z"/>
      <path class="st1" d="M238.23,283.36s-20.1.13-20.1-28.66c0,28.79-20.1,28.66-20.1,28.66,20.18,0,20.1,28.92,20.1,28.92,0,0-.08-28.92,20.1-28.92Z"/>
      <path class="st6" d="M324.96,276.43c-6.78,3.07-9.61,2.33-9.61,2.33,0,34.98-23.59,57.84-58.55,56.42-13-.53-28.28-8.43-38.68-15.91,11.5,15.99,32,30.42,53.2,30.42,34.98,0,63.34-28.36,63.34-63.34,0-7.24-.03-15.92,0-18.04,0,0-2.92,5.06-9.7,8.13Z"/>
    </g>
  </g>
  <g id="Layer_8">
    <g>
      <path class="st5" d="M253.53,278.14c33.03,24.05,76.87,44.83,76.87,44.83,6.54-8.16,8.99-16.15,7.7-28.61,0,0-36.21-16.49-66.74-39.77-23.82-18.16-44.87-39.88-64.94-62.02-20.09-22.16-37.14-46.48-49.88-73.61-5.01-10.67-9.83-21.66-12.34-33.22-7.5.03-25.42.01-32.92.04,0,0,0,.25,0,.42v331.89h32.88V160.01c10.5,17.23,22.48,33.59,35.51,49.2,8.16,9.78,39.72,44.07,73.86,68.92Z"/>
      <path class="st5" d="M359.84,85.69v152.56c-75.17-28.63-138.08-124.71-146.9-152.56l-37.68.07c13.4,47.79,90.03,147.21,160.78,177.15,30.19,12.77,45.06,2.05,51.78-7.07,3.27-4.43,4.89-9.85,4.89-15.36V85.69h-32.88Z"/>
      <path class="st1" d="M228.56,305.39s-34.23.23-34.23-48.78c0,49.01-34.23,48.78-34.23,48.78,34.36,0,34.23,49.24,34.23,49.24,0,0-.13-49.24,34.23-49.24Z"/>
      <path class="st5" d="M376.21,293.57c-11.54,5.22-16.36,3.95-16.36,3.95,0,59.46-40.17,98.31-99.67,95.9-22.12-.9-48.14-14.33-65.85-27.04,19.57,27.18,54.47,51.71,90.56,51.71,59.55,0,107.83-48.2,107.83-107.66,0-12.3-.05-27.06,0-30.67,0,0-4.97,8.59-16.51,13.81Z"/>
    </g>
  </g>
  <g id="Layer_3" class="st7">
    <g>
      <path class="st6" d="M243.56,244.89l-38.29-60.5c-.28-.35-.6-.53-.95-.53-.71,0-1.16.42-1.38,1.27v52.25c0,.63.33,1.66,1,3.07.67,1.41,2.17,2.36,4.5,2.86.35.07.6.32.74.74v.11c0,.42-.28.67-.85.74h-11.95c-.49,0-.78-.28-.85-.85.14-.42.39-.67.74-.74,1.76-.28,3.03-.86,3.81-1.75.78-.88,1.25-1.78,1.43-2.7.17-.92.26-1.41.26-1.48v-52.68c-.28-1.76-.81-3.12-1.59-4.07-.78-.95-2.08-1.57-3.91-1.85-.35-.07-.6-.32-.74-.74,0-.42.28-.7.85-.85h8.78c1.83,0,3.31.81,4.44,2.43l31.42,49.5c.35.42.7.63,1.06.63.63,0,1.06-.42,1.27-1.27v-43.79c0-.49-.32-1.48-.95-2.96-.63-1.48-2.12-2.47-4.44-2.96-.42-.07-.67-.32-.74-.74v-.11c0-.42.25-.67.74-.74h12.06c.49,0,.74.21.74.63v.21c0,.42-.21.67-.63.74-1.76.28-3.03.86-3.81,1.75-.78.88-1.25,1.76-1.43,2.64-.18.88-.26,1.39-.26,1.53v59.13c0,.63-.35.99-1.06,1.06Z"/>
      <path class="st6" d="M276.66,245.52c-6.28,0-11.55-1.96-15.81-5.87-4.27-3.91-6.4-9.71-6.4-17.4s2.13-13.49,6.4-17.4c4.27-3.91,9.54-5.87,15.81-5.87,2.96,0,6.29.69,10,2.06s6.19,3.76,7.46,7.14c.14.49.21.95.21,1.37,0,1.9-1.08,3.63-3.23,5.18-2.15,1.55-4.78,2.95-7.88,4.18-3.1,1.24-6.21,2.35-9.31,3.33-2.75.92-4.81,2.42-6.19,4.5-1.37,2.08-2.06,4.32-2.06,6.72,0,2.68.9,5.13,2.7,7.35,1.8,2.22,4.42,3.44,7.88,3.65h.42c2.18,0,4.35-.62,6.51-1.85,2.15-1.23,4-3.16,5.55-5.76.56-.77,1.23-1.16,2.01-1.16.56,0,1.09.21,1.59.63.56.56.85,1.16.85,1.8s-.25,1.2-.74,1.69c-4.23,3.81-9.49,5.71-15.76,5.71ZM263.02,232.51v-.32c0-.49.17-1.43.53-2.8.35-1.37,1.23-2.8,2.64-4.28,1.41-1.48,3.63-2.75,6.66-3.81,3.74-1.13,7.16-2.57,10.26-4.34,3.1-1.76,4.83-3.98,5.18-6.66l.11-1.16c0-2.4-.69-4.27-2.06-5.61-1.38-1.34-2.95-2.26-4.71-2.75-1.76-.49-3.32-.74-4.65-.74h-.32c-2.4.07-4.76.86-7.09,2.38-2.33,1.52-4.28,3.88-5.87,7.09-1.59,3.21-2.38,7.46-2.38,12.75,0,.28.09,1.5.26,3.65.17,2.15.65,4.35,1.43,6.61Z"/>
      <path class="st6" d="M320.24,245.52c-6.28,0-11.55-1.96-15.81-5.87-4.27-3.91-6.4-9.71-6.4-17.4s2.13-13.49,6.4-17.4c4.26-3.91,9.54-5.87,15.81-5.87,2.96,0,6.29.69,10,2.06s6.19,3.76,7.46,7.14c.14.49.21.95.21,1.37,0,1.9-1.08,3.63-3.23,5.18-2.15,1.55-4.78,2.95-7.88,4.18-3.1,1.24-6.21,2.35-9.31,3.33-2.75.92-4.81,2.42-6.19,4.5-1.38,2.08-2.06,4.32-2.06,6.72,0,2.68.9,5.13,2.7,7.35,1.8,2.22,4.42,3.44,7.88,3.65h.42c2.18,0,4.35-.62,6.51-1.85,2.15-1.23,4-3.16,5.55-5.76.56-.77,1.23-1.16,2.01-1.16.56,0,1.09.21,1.59.63.56.56.85,1.16.85,1.8s-.25,1.2-.74,1.69c-4.23,3.81-9.49,5.71-15.76,5.71ZM306.6,232.51v-.32c0-.49.18-1.43.53-2.8.35-1.37,1.23-2.8,2.64-4.28,1.41-1.48,3.63-2.75,6.66-3.81,3.74-1.13,7.16-2.57,10.26-4.34,3.1-1.76,4.83-3.98,5.18-6.66l.11-1.16c0-2.4-.69-4.27-2.06-5.61-1.38-1.34-2.95-2.26-4.71-2.75-1.76-.49-3.32-.74-4.65-.74h-.32c-2.4.07-4.76.86-7.09,2.38-2.33,1.52-4.28,3.88-5.87,7.09-1.59,3.21-2.38,7.46-2.38,12.75,0,.28.09,1.5.26,3.65.18,2.15.65,4.35,1.43,6.61Z"/>
      <path class="st6" d="M359.59,244.89h-17.14c-.49,0-.78-.32-.85-.95.21-.42.46-.63.74-.63,2.33-.42,3.84-1.34,4.55-2.75.71-1.41,1.06-2.43,1.06-3.07v-53.21c0-1.41-.74-2.19-2.22-2.33l-1.27.21c-.21,0-.39-.11-.53-.32l-.11-.32c0-.28.11-.46.32-.53l8.04-7.19c.28-.21.56-.32.85-.32.63,0,1.02.39,1.16,1.16v62.83c0,.63.33,1.66,1,3.07.67,1.41,2.17,2.33,4.5,2.75.42,0,.67.21.74.63v.21c0,.42-.28.67-.85.74ZM382.97,245.52c-2.75.14-5.75-1.48-8.99-4.87l-11-12.59c-2.05-1.9-4.06-2.89-6.03-2.96-.99-.28-1.48-.81-1.48-1.59,0-.42.18-.85.53-1.27l18.51-17.88c.35-.49.53-.92.53-1.27,0-.63-.71-1.38-2.12-2.22-.28-.21-.42-.46-.42-.74,0-.35.21-.56.64-.63h10.58c.42,0,.67.25.74.74,0,.35-.25.6-.74.74-2.4.42-4.83,1.48-7.3,3.17l-17.67,17.03c-.21.21-.32.46-.32.74,0,.49.32.81.95.95h.21c.7-.14,1.41-.21,2.12-.21,2.89,0,5.36,1.13,7.41,3.38,6.49,7.48,10.89,12.38,13.22,14.7.28.28.81.58,1.59.9.78.32,1.73.48,2.86.48.92,0,1.9-.17,2.96-.53h.21c.42,0,.67.25.74.74,0,.21-.07.39-.21.53-1.9,1.76-4.41,2.64-7.51,2.64Z"/>
      <path class="st6" d="M411,245.42h-1.06c-2.82,0-5.59-.32-8.3-.95-2.72-.63-4.95-1.75-6.72-3.33-1.76-1.59-2.64-3.79-2.64-6.61,0-2.96,1.57-5.46,4.71-7.51,3.14-2.04,7.35-3.88,12.64-5.5l9.52-3.17c2.04-.77,3.65-2.01,4.81-3.7,1.16-1.69,1.75-3.53,1.75-5.5,0-2.18-.78-4.23-2.33-6.14-2.12-2.04-4.55-3.07-7.3-3.07l-1.48.11c-4.65.71-8.18,3.49-10.58,8.36-.64,1.34-1.55,2.01-2.75,2.01l-.53-.11c-1.48-.63-2.22-1.59-2.22-2.86,0-.7.28-1.38.85-2.01,1.9-1.83,4.32-3.31,7.25-4.44,2.92-1.13,5.59-1.8,7.99-2.01l2.85-.11c5.15,0,9.08,1.45,11.79,4.34,2.71,2.89,4.07,8.18,4.07,15.87l-.11,5.18c0,1.62.05,3.83.16,6.61.11,2.79.37,5.27.79,7.46.35,1.41.79,2.4,1.32,2.96.53.57,1.02.95,1.48,1.16.46.21.69.53.69.95v.11c-.07.21-.42.49-1.06.85-.64.35-1.45.53-2.43.53-.85,0-1.76-.17-2.75-.53-.99-.35-2.05-1.02-3.17-2.01-1.06-.99-1.97-1.48-2.75-1.48-.71,0-1.52.32-2.43.95-2.61,2.05-6.63,3.24-12.06,3.6ZM412.16,244.15c5.01-.49,8.74-2.26,11.21-5.29,2.47-3.03,3.7-6.52,3.7-10.47v-.74c0-1.83-.04-4.37-.11-7.62,0-1.34-.78-2.08-2.33-2.22-.21,0-.46.04-.74.11l-10.37,3.81c-3.74,1.27-7.03,2.89-9.89,4.87-2.86,1.97-4.39,4.51-4.6,7.62v.11c0,3.17,1.34,5.61,4.02,7.3,2.68,1.69,5.39,2.54,8.14,2.54h.95Z"/>
      <path class="st6" d="M224.75,308.35h-13.17c-.37,0-.56-.16-.56-.48v-.16c0-.32.16-.5.48-.56,1.75-.32,2.87-.99,3.37-2.02.5-1.03.75-1.79.75-2.26v-11.9c0-1.69-.42-3.31-1.27-4.84l-13.01-22.85c-.37-.63-1.05-1.47-2.02-2.5-.98-1.03-2.24-1.71-3.77-2.02-.32-.05-.5-.24-.56-.56,0-.32.21-.53.63-.63h13.96c.42,0,.63.21.63.63-.05.27-.24.45-.56.56-1.43.27-2.41.65-2.93,1.15-.53.5-.79.99-.79,1.47,0,.32.08.61.24.87l12.46,21.9c.42.53.92.79,1.51.79s1.08-.26,1.51-.79l12.38-21.74c.11-.21.16-.48.16-.79,0-.48-.23-.98-.67-1.51-.45-.53-1.31-.98-2.58-1.35-.37-.16-.56-.4-.56-.71.11-.32.32-.48.63-.48h8.96c.42,0,.63.21.63.63-.11.32-.29.5-.56.56-1.8.37-3.11,1.07-3.93,2.1-.82,1.03-1.36,1.84-1.63,2.42l-12.53,22.13c-.85,1.48-1.27,3.07-1.27,4.76v12.69c0,.48.25,1.23.75,2.26.5,1.03,1.6,1.71,3.29,2.02.37.05.56.24.56.56v.08c0,.32-.19.5-.56.56Z"/>
      <path class="st6" d="M247.13,308.75h-.79c-2.12,0-4.19-.24-6.23-.71-2.04-.48-3.72-1.31-5.04-2.5-1.32-1.19-1.98-2.84-1.98-4.96,0-2.22,1.18-4.1,3.53-5.63,2.35-1.53,5.51-2.91,9.48-4.13l7.14-2.38c1.53-.58,2.74-1.51,3.61-2.78s1.31-2.64,1.31-4.13c0-1.64-.58-3.17-1.75-4.6-1.59-1.53-3.41-2.3-5.47-2.3l-1.11.08c-3.49.53-6.14,2.62-7.93,6.27-.48,1.01-1.16,1.51-2.06,1.51l-.4-.08c-1.11-.48-1.67-1.19-1.67-2.14,0-.53.21-1.03.63-1.51,1.43-1.38,3.24-2.49,5.43-3.33,2.19-.85,4.19-1.35,5.99-1.51l2.14-.08c3.86,0,6.81,1.09,8.85,3.25,2.04,2.17,3.05,6.14,3.05,11.9l-.08,3.89c0,1.22.04,2.87.12,4.96.08,2.09.28,3.95.6,5.59.26,1.06.6,1.8.99,2.22.4.42.77.71,1.11.87.34.16.52.4.52.71v.08c-.05.16-.32.37-.79.64-.48.26-1.08.4-1.82.4-.63,0-1.32-.13-2.06-.4-.74-.26-1.53-.77-2.38-1.51-.79-.74-1.48-1.11-2.06-1.11-.53,0-1.14.24-1.82.71-1.96,1.54-4.97,2.43-9.04,2.7ZM248,307.8c3.75-.37,6.56-1.69,8.41-3.97,1.85-2.27,2.78-4.89,2.78-7.85v-.56c0-1.37-.03-3.28-.08-5.71,0-1-.58-1.56-1.75-1.67-.16,0-.34.03-.56.08l-7.78,2.86c-2.8.95-5.28,2.17-7.42,3.65-2.14,1.48-3.29,3.39-3.45,5.71v.08c0,2.38,1,4.2,3.01,5.47,2.01,1.27,4.05,1.9,6.11,1.9h.71Z"/>
      <path class="st6" d="M293.85,308.35h-22.93c-.63,0-.98-.34-1.03-1.03,0-.26.08-.5.24-.71l23.8-29.51c.16-.26.24-.53.24-.79,0-.58-.4-.98-1.19-1.19-2.8,0-5.55.27-8.25.79-2.7.53-5.04,1.55-7.02,3.05-1.98,1.51-3.4,3.72-4.24,6.63-.16.21-.34.32-.56.32-.27,0-.45-.18-.56-.56l1.75-8.41c.53-1.75,1.59-2.62,3.17-2.62h21.98c.74,0,1.14.4,1.19,1.19,0,.26-.08.53-.24.79l-23.8,29.51c-.16.21-.24.45-.24.71,0,.53.34.87,1.03,1.03,3.12,0,6.06-.25,8.81-.75,2.75-.5,5.29-1.59,7.62-3.25,2.33-1.67,4.47-4.22,6.43-7.66.16-.16.32-.24.48-.24.32,0,.53.21.63.63v.24l-3.57,9.2c-.79,1.75-2.04,2.62-3.73,2.62Z"/>
      <path class="st6" d="M320.59,308.75c-4.71,0-8.66-1.47-11.86-4.4-3.2-2.93-4.8-7.26-4.8-12.97s1.48-9.74,4.44-12.89,6.64-4.72,11.03-4.72l1.19.08c4.23.37,7.48,2.35,9.76,5.95.21.26.45.4.71.4.48,0,.79-.29.95-.87l.08-16.5c0-1-.56-1.56-1.67-1.67l-.95.16c-.16,0-.29-.08-.4-.24l-.08-.32c0-.16.05-.26.16-.32l6.11-5.39c.21-.16.42-.24.63-.24.42,0,.71.29.87.87v44.9c.21.95.71,1.43,1.51,1.43.26,0,.56-.05.87-.16h.16c.16,0,.29.11.4.32l.08.24c0,.16-.05.29-.16.4l-5.71,5.08c-.26.32-.61.48-1.03.48l-.24-.08c-.37-.26-.56-.58-.56-.95v-.4c-.16-1-.53-1.51-1.11-1.51h-.16c-.37,0-.74.11-1.11.32-.37.21-.74.42-1.11.64-2.06,1.59-4.73,2.38-8.01,2.38ZM321.06,307.88l1.35-.08c2.86-.42,5.17-1.68,6.94-3.77s2.66-4.51,2.66-7.26v-7.93c-.32-3.28-1.06-5.96-2.22-8.05s-2.58-3.61-4.24-4.56-3.32-1.43-4.96-1.43c-1.74,0-3.52.57-5.31,1.71-1.8,1.14-3.29,2.92-4.48,5.35-1.19,2.43-1.78,5.61-1.78,9.52s.6,7.06,1.78,9.44c1.19,2.38,2.67,4.13,4.44,5.24,1.77,1.11,3.56,1.72,5.35,1.82h.48Z"/>
      <path class="st6" d="M356.6,308.75h-.79c-2.12,0-4.19-.24-6.23-.71-2.04-.48-3.72-1.31-5.04-2.5-1.32-1.19-1.98-2.84-1.98-4.96,0-2.22,1.18-4.1,3.53-5.63,2.35-1.53,5.51-2.91,9.48-4.13l7.14-2.38c1.53-.58,2.74-1.51,3.61-2.78s1.31-2.64,1.31-4.13c0-1.64-.58-3.17-1.75-4.6-1.59-1.53-3.41-2.3-5.47-2.3l-1.11.08c-3.49.53-6.14,2.62-7.93,6.27-.48,1.01-1.16,1.51-2.06,1.51l-.4-.08c-1.11-.48-1.67-1.19-1.67-2.14,0-.53.21-1.03.63-1.51,1.43-1.38,3.24-2.49,5.43-3.33,2.19-.85,4.19-1.35,5.99-1.51l2.14-.08c3.86,0,6.81,1.09,8.84,3.25,2.03,2.17,3.06,6.14,3.06,11.9l-.08,3.89c0,1.22.04,2.87.12,4.96.08,2.09.28,3.95.6,5.59.26,1.06.6,1.8.99,2.22.4.42.77.71,1.11.87.34.16.52.4.52.71v.08c-.05.16-.32.37-.79.64-.48.26-1.08.4-1.82.4-.63,0-1.32-.13-2.06-.4-.74-.26-1.54-.77-2.38-1.51-.79-.74-1.48-1.11-2.06-1.11-.53,0-1.14.24-1.82.71-1.96,1.54-4.97,2.43-9.04,2.7ZM357.48,307.8c3.75-.37,6.56-1.69,8.41-3.97,1.85-2.27,2.78-4.89,2.78-7.85v-.56c0-1.37-.03-3.28-.08-5.71,0-1-.58-1.56-1.75-1.67-.16,0-.34.03-.56.08l-7.77,2.86c-2.8.95-5.28,2.17-7.42,3.65-2.14,1.48-3.29,3.39-3.45,5.71v.08c0,2.38,1,4.2,3.01,5.47,2.01,1.27,4.05,1.9,6.11,1.9h.71Z"/>
      <path class="st6" d="M420.63,308.35h-12.93c-.27,0-.45-.18-.56-.56v-.16c0-.26.18-.42.56-.48,1.75-.32,2.87-1,3.37-2.06.5-1.06.75-1.82.75-2.3v-11.66c-.05-3.86-.66-6.98-1.82-9.36-1.16-2.38-2.63-4.13-4.4-5.24-1.77-1.11-3.56-1.67-5.35-1.67-1.64,0-3.29.48-4.96,1.43-1.67.95-3.08,2.46-4.25,4.52-1.16,2.06-1.9,4.73-2.22,8.01v13.96c0,.48.25,1.24.75,2.3.5,1.06,1.63,1.75,3.37,2.06.32,0,.5.16.56.48v.16c0,.32-.21.5-.63.56h-12.85c-.37,0-.58-.24-.63-.71.16-.32.34-.48.56-.48,1.75-.32,2.88-1,3.41-2.06.53-1.06.79-1.82.79-2.3v-20.39c0-1.06-.56-1.61-1.67-1.67-.26,0-.53.05-.79.16h-.08c-.21,0-.37-.11-.48-.32l-.08-.24c0-.16.08-.29.24-.4l6.03-5.39c.16-.16.34-.24.56-.24.48,0,.79.29.95.87v4.2c0,.53.32.82.95.87.32,0,.58-.16.79-.48,2.22-3.54,5.47-5.5,9.76-5.87l1.35-.08c4.28,0,7.83,1.56,10.63,4.68s4.21,7.41,4.21,12.85v11.42c0,.48.26,1.24.79,2.3.53,1.06,1.67,1.75,3.41,2.06.26,0,.42.16.48.48v.16c0,.32-.19.5-.56.56Z"/>
      <path class="st6" d="M437.44,308.35h-12.85c-.37,0-.58-.24-.63-.71.16-.32.34-.48.56-.48,1.75-.32,2.88-1,3.41-2.06.53-1.06.79-1.82.79-2.3v-20.39c0-1.06-.56-1.61-1.67-1.67l-.95.16c-.16,0-.29-.11-.4-.32l-.08-.24c0-.16.05-.29.16-.4l6.11-5.39c.16-.16.34-.24.56-.24.42,0,.71.32.87.95l.08,27.53c0,.48.25,1.24.75,2.3.5,1.06,1.63,1.75,3.37,2.06.32,0,.5.16.56.48v.16c0,.32-.21.5-.63.56ZM431.02,268.13c-1.54,0-2.46-.95-2.78-2.86,0-1.53.92-2.46,2.78-2.78,1.59,0,2.54.93,2.86,2.78,0,1.59-.95,2.54-2.86,2.86Z"/>
    </g>
  </g>
  <g id="Layer_4" class="st7">
    <circle class="st2" cx="949.59" cy="444.79" r="39.21"/>
    <circle class="st2" cx="1477.04" cy="444.79" r="39.21"/>
    <text class="st0" transform="translate(938.49 456.06)"><tspan x="0" y="0">2</tspan></text>
    <text class="st0" transform="translate(1466.48 456.06)"><tspan x="0" y="0">3</tspan></text>
    <rect x="642.96" y="94.46" width="32.85" height="311.12"/>
    <path d="M642.94,94.46l-48.38,68.81s32.05-35.86,51.32-21.86"/>
    <path d="M921.05,261.07c-.03-5.99-.12-11.96-.11-17.87,0-49.27.09-98.54.09-147.81v-.93h-32.85v25.71c0,28.45-.01,56.28-4.96,84.39-1.99,11.29-4.15,22.65-8.65,33.22-3.95,9.28-9.07,17.74-17.57,23.72-7.66,5.4-16.87,8.33-26.35,7.65-14.81-1.06-32.33-12.65-38.75-25.9-11.15-23.04-9.51-47.83-10.34-72.46-.76-22.44-10.08-43.71-28.29-58.97-13.46-11.27-31.14-17.91-48.34-10.87-10.73,4.39-21.55,12.39-29.11,21.05v178.77c.08-26.46.54-52.99,3.65-79.3,1.99-16.78,4.9-34.74,9.72-50.98,6.8-22.92,34.8-41.52,57.73-27.14,8.77,5.5,14.9,14.38,18.8,23.86,7.32,17.81,8.18,38.38,12.27,57.02,4.4,20.01,17.85,45.05,40.45,55.04,20.54,9.08,60.74,4.98,71.78-7.82-1.55,29.69-11.07,67.18-33.18,88.29-10.02,9.57-23.12,15.71-36.78,18.07-45.43,7.84-83.24-28.24-86.18-72.22.5,18.49-.3,29.6,5.69,47.14,5.99,17.54,12.49,30.64,27.44,39.98,35.2,21.96,96.35,14.76,124.5-13.6,14.5-14.61,20.73-28.11,25.35-49.32,4.16-19.1,4.09-49.22,3.98-68.72Z"/>
    <g>
      <path d="M704.91,243.76s33.02.22,33.02-47.07v94.58s.13-47.51-33.02-47.51Z"/>
      <path d="M770.95,243.76s-33.02.22-33.02-47.07v94.58s-.13-47.51,33.02-47.51Z"/>
    </g>
    <path d="M1165.45,95.48c19.97,0,39.94-.39,59.7-.37,20.84.02,41.68.05,62.53.07-7.9,0-16.9,7.74-21.65,13.32-6.11,7.2-9.45,16.56-9.58,25.99-.37,26.08,21.59,44.57,40.71,58.83,22.46,16.75,49.04,29.69,77.55,30.04,6.71.08,13.68-.6,19.47-3.99,7.97-4.66,12.36-13.59,15.5-22.27,8.95-24.74,17.03-61.74-1.67-84.02-8.72-10.39-20.98-16.07-34.26-17.75,8.08-1.82,18.68-.25,27.16-.25,9.79,0,19.58,0,29.38,0,19.49,0,38.99-.11,58.48.05-13.81,3.89-28.54,8.36-37.53,19.55-11.25,14-11.68,36.19-14.16,53.26-2.99,20.63-5.05,41.39-7.89,62.04-3.93,28.59-7.77,57.19-11.47,85.82-.87,6.73-1.74,13.59-.43,20.25,3.7,18.89,26.88,25.7,42.99,29.67-39.19,0-78.38.02-117.57.03,24.93-6.14,45.21-6.99,54.72-62.83,3.58-21.06-4.78-36.83-21.29-49.61-16.86-13.05-35.41-24.14-54.22-34.12-17.89-9.5-36.53-18.25-56.02-23.95-.16-.05-.31-.09-.47-.14-12.02-3.47-25.85-4.75-36.27,2.18-8.41,5.59-12.87,15.37-16.66,24.73-11.1,27.44-20.06,55.95-23.63,85.34-1.16,9.51-1.72,19.32.98,28.51,5.39,18.37,28.91,30.01,47.17,30.07-41.93-.15-83.87-.3-125.8-.45,48.18-5.14,58.85-54,64.86-88.03,4.98-28.19,9.96-56.39,15.6-84.46,5-24.94,12.28-50.99,2.04-75.65-2.34-5.63-6.43-9.54-11.39-12.87-2.56-1.72-5.21-3.2-7.99-4.56-1.42-.69-7.7-4.42-8.89-4.42Z"/>
  </g>
</svg>