<?xml version="1.0" encoding="UTF-8"?>
<svg id="Layer_8" xmlns="http://www.w3.org/2000/svg" version="1.1" viewBox="0 0 504 504">
  <!-- Generator: Adobe Illustrator 29.7.1, SVG Export Plug-In . SVG Version: 2.1.1 Build 8)  -->
  <defs>
    <style>
      .st0 {
        fill: #6f7acf;
      }

      .st1 {
        fill: #2b2551;
      }
    </style>
  </defs>
  <path class="st1" d="M253.53,278.07c33.03,24.04,76.87,44.82,76.87,44.82,6.54-8.16,8.99-16.15,7.7-28.6,0,0-36.21-16.49-66.74-39.75-23.82-18.16-44.87-39.87-64.94-62-20.09-22.15-37.14-46.46-49.88-73.59-5.01-10.66-9.83-21.66-12.34-33.21-7.5.03-25.42.01-32.92.04,0,0,0,.25,0,.42v331.77h32.88V159.98c10.5,17.22,22.48,33.58,35.51,49.18,8.16,9.77,39.72,44.06,73.86,68.9Z"/>
  <path class="st1" d="M359.84,85.69v152.56c-75.17-28.63-138.08-124.71-146.9-152.56l-37.68.07c13.4,47.79,90.03,147.21,160.78,177.15,30.19,12.77,45.06,2.05,51.78-7.07,3.27-4.43,4.89-9.85,4.89-15.36V85.69h-32.88Z"/>
  <path class="st0" d="M228.56,305.39s-34.23.23-34.23-48.78c0,49.01-34.23,48.78-34.23,48.78,34.36,0,34.23,49.24,34.23,49.24,0,0-.13-49.24,34.23-49.24Z"/>
  <path class="st1" d="M376.21,293.59c-11.54,5.23-16.36,3.96-16.36,3.96,0,59.55-40.17,98.47-99.67,96.05-22.12-.9-48.14-14.35-65.85-27.08,19.57,27.22,54.47,51.79,90.56,51.79,59.55,0,107.83-48.28,107.83-107.83,0-12.32-.05-27.1,0-30.72,0,0-4.97,8.61-16.51,13.83Z"/>
</svg>